<?xml version="1.0" encoding="UTF-8"?>
<svg width="536px" height="185px" viewBox="0 0 536 185" version="1.1" xmlns="http://www.w3.org/2000/svg" xmlns:xlink="http://www.w3.org/1999/xlink">
    <title>Logo </title>
    <defs>
        <rect id="path-1" x="0" y="0" width="94" height="129"></rect>
        <linearGradient x1="-24.4110643%" y1="349.168754%" x2="184.849801%" y2="-669.713216%" id="linearGradient-3">
            <stop stop-color="#24086F" offset="0%"></stop>
            <stop stop-color="#5E02AE" offset="100%"></stop>
        </linearGradient>
    </defs>
    <g id="00---Component" stroke="none" stroke-width="1" fill="none" fill-rule="evenodd">
        <g id="Experience---Home" transform="translate(-452.000000, -136.000000)">
            <g id="Logo-" transform="translate(452.000000, 136.000000)">
                <g id="Group-7" transform="translate(281.000000, 0.000000)">
                    <mask id="mask-2" fill="white">
                        <use xlink:href="#path-1"></use>
                    </mask>
                    <g id="Rectangle" transform="translate(47.000000, 64.500000) scale(1, -1) translate(-47.000000, -64.500000) "></g>
                    <g id="Group" mask="url(#mask-2)">
                        <g transform="translate(0.000000, 7.000000)">
                            <path d="M34.3199978,159.41999 L24.2999984,159.41999 C23.0999984,159.41999 22.1399985,160.37999 22.1399985,161.57999 L22.1399985,161.57999 C22.1399985,162.77999 23.0999984,163.73999 24.2999984,163.73999 L34.3199978,163.73999 C35.5199977,163.73999 36.4799976,162.77999 36.4799976,161.57999 L36.4799976,161.57999 C36.4799976,160.37999 35.5199977,159.41999 34.3199978,159.41999 Z" id="Path" fill="#FFFFFF" fill-rule="evenodd"></path>
                            <path d="M54.4199966,159.41999 L44.3399972,159.41999 C43.1399972,159.41999 42.1799973,160.37999 42.1799973,161.57999 L42.1799973,161.57999 C42.1799973,162.77999 43.1399972,163.73999 44.3399972,163.73999 L54.3599966,163.73999 C55.5599965,163.73999 56.5199965,162.77999 56.5199965,161.57999 L56.5199965,161.57999 C56.5199965,160.37999 55.5599965,159.41999 54.4199966,159.41999 Z" id="Path" fill="#FFFFFF" fill-rule="evenodd"></path>
                            <path d="M74.8999994,128.36 C74.9371386,123.732911 74.6904082,120.881664 74.1598082,119.806259 C73.2099445,117.881102 72.4274336,116.295131 71.8122753,115.048346 C70.1206576,111.619823 67.5832311,106.47704 64.1999958,99.6199945 C62.6399959,96.9199947 59.5,91 48,91 C36.5,91 52.7399965,102.559994 54.2999964,105.259994 C57.5956706,111.939573 60.0674262,116.949257 61.7152633,120.289046 C62.8896492,122.669258 63.9845615,127.239576 65,134 C66.5599999,136.7 70.0999997,137.6 72.7999995,136.04 C75.5599994,134.48 76.4599993,131.06 74.8999994,128.36 Z" id="Path" fill="#FFFFFF" fill-rule="evenodd"></path>
                            <path d="M32.8999994,124.36 C32.6814874,125.453333 32.434757,124.602086 32.1598082,121.806259 C31.9297287,119.466686 30.4274336,116.295131 29.8122753,115.048346 C28.1206576,111.619823 25.5832311,106.47704 22.1999958,99.6199945 C20.6399959,96.9199947 17.5,91 6,91 C-5.5,91 10.7399965,102.559994 12.2999964,105.259994 C15.5956706,111.939573 18.0674262,116.949257 19.7152633,120.289046 C20.8896492,122.669258 21.9845615,127.239576 23,134 C24.5599999,136.7 28.0999997,137.6 30.7999995,136.04 C33.5599994,134.48 34.4599993,127.06 32.8999994,124.36 Z" id="Path" fill="#FFFFFF" fill-rule="evenodd" transform="translate(17.786116, 113.902230) scale(-1, 1) translate(-17.786116, -113.902230) "></path>
                            <path d="M39.3599975,115.739993 C38.6999975,115.739993 38.2199975,115.199993 38.2199975,114.599993 C38.2199975,102.719994 51.5999967,95.9399943 64.559996,89.3399947 C71.8799955,85.6199949 78.7199951,82.1399951 82.9799949,77.9399954 C89.6399945,71.3399957 92.5199943,62.9999962 90.2999944,56.7599966 C88.3199946,51.1799969 82.5599949,47.8199971 73.6199954,46.9199972 C63.779996,45.9599973 54.2399966,38.5799977 46.1399971,25.4999985 C40.0799974,15.7799991 36.8999976,6.47999961 36.7799976,6.05999964 C36.5999976,5.45999967 36.8999976,4.79999971 37.4999976,4.61999972 C38.0999976,4.43999974 38.7599975,4.73999972 38.9399975,5.33999968 C39.0599975,5.69999966 51.5999967,42.5399975 73.7999954,44.6399973 C86.2799947,45.8399973 90.8399944,51.4799969 92.3999943,55.9799967 C94.9199942,63.0599962 91.7999943,72.2999957 84.4799948,79.5599953 C79.9799951,84.059995 72.8999955,87.5999948 65.4599959,91.3799946 C53.1599967,97.6199942 40.3799974,104.099994 40.3799974,114.539993 C40.4999974,115.199993 39.9599974,115.739993 39.3599975,115.739993 Z" id="Path" fill="#FFFFFF" fill-rule="nonzero"></path>
                            <path d="M62.2799961,110.279993 C62.2799961,97.6199942 52.0199967,87.3599948 39.3599975,87.3599948 L37.9199976,87.3599948 C25.2599983,87.3599948 14.9999989,97.6199942 14.9999989,110.279993 C14.9999989,122.939993 8.63999931,133.199992 37.9199976,133.199992 L39.3599975,133.199992 C76.5599953,133.199992 62.2799961,122.939993 62.2799961,110.279993 Z" id="Path" fill="#FFFFFF" fill-rule="evenodd"></path>
                            <path d="M39.6245734,161.5 C44.0386285,161.5 47.9740511,160.736948 51.4308412,159.210843 C54.8876313,157.684739 57.8126076,155.582999 60.20577,152.905622 C62.5989324,150.228246 64.4336902,147.082329 65.7100435,143.467871 C66.9863967,139.853414 67.6245734,135.957831 67.6245734,131.781124 C67.6245734,127.497323 66.9863967,123.521419 65.7100435,119.853414 C64.4336902,116.185408 62.5989324,112.985944 60.20577,110.25502 C57.8126076,107.524096 54.8876313,105.382195 51.4308412,103.829317 C47.9740511,102.276439 44.0386285,101.5 39.6245734,101.5 C35.2636997,101.5 31.3415724,102.276439 27.8581916,103.829317 C24.3748108,105.382195 21.4365392,107.524096 19.0433768,110.25502 C16.6502144,112.985944 14.8154566,116.185408 13.5391033,119.853414 C12.26275,123.521419 11.6245734,127.497323 11.6245734,131.781124 C11.6245734,135.957831 12.26275,139.853414 13.5391033,143.467871 C14.8154566,147.082329 16.6502144,150.228246 19.0433768,152.905622 C21.4365392,155.582999 24.3748108,157.684739 27.8581916,159.210843 C31.3415724,160.736948 35.2636997,161.5 39.6245734,161.5 Z" id="Path" fill="#FFFFFF" fill-rule="evenodd"></path>
                            <path d="M40.2599974,0 L36.9599976,0 C35.8799977,0 35.0399977,0.83999995 35.0399977,1.91999989 L35.0399977,10.9199993 C35.0399977,12 35.8799977,12.8399992 36.9599976,12.8399992 L40.2599974,12.8399992 C41.3399974,12.8399992 42.1799973,12 42.1799973,10.9199993 L42.1799973,1.91999989 C42.1799973,0.83999995 41.3399974,0 40.2599974,0 Z" id="Path" fill="#FFFFFF" fill-rule="evenodd"></path>
                            <path d="M46.3799971,8.57999949 L30.839998,8.57999949 C29.999998,8.57999949 29.2799981,9.29999945 29.2799981,10.1399994 L29.2799981,12.7799992 C29.2799981,13.6199992 29.999998,14.3399991 30.839998,14.3399991 L46.3799971,14.3399991 C47.219997,14.3399991 47.939997,13.6199992 47.939997,12.7799992 L47.939997,10.1399994 C47.939997,9.23999945 47.219997,8.57999949 46.3799971,8.57999949 Z" id="Path" fill="#E8E8E8" fill-rule="evenodd"></path>
                            <path d="M45.5999971,81.6599951 L31.6199979,81.6599951 C30.359998,81.6599951 29.2799981,82.6799951 29.2799981,83.999995 L29.2799981,87.9599948 C29.2799981,89.2199947 30.299998,90.2999946 31.6199979,90.2999946 L45.5999971,90.2999946 C46.859997,90.2999946 47.939997,89.2799947 47.939997,87.9599948 L47.939997,83.999995 C47.939997,82.6799951 46.859997,81.6599951 45.5999971,81.6599951 Z" id="Path" fill="#E8E8E8" fill-rule="evenodd"></path>
                            <circle id="Oval" fill="#FFFFFF" fill-rule="nonzero" cx="38.5799975" cy="49.3799971" r="37.9799977"></circle>
                            <path d="M38.6399975,16.379999 C20.0399986,16.379999 4.91999953,31.6199981 4.97982157,50.399997 C5.03999952,86.879999 72.4199955,88.1999947 72.3001556,50.399997 C72.2399955,31.6199981 57.2399964,16.379999 38.6399975,16.379999 Z" id="Path" fill="url(#linearGradient-3)" fill-rule="evenodd"></path>
                            <path d="M9.89999923,47.3399972 C9.11999928,47.2799972 8.39999932,47.8199971 8.33999932,48.5999971 C8.27999933,49.3799971 8.8199993,50.099997 9.59999925,50.159997 C10.3799992,50.219997 11.0999992,49.679997 11.1599992,48.8999971 C11.2799991,48.1799971 10.6799992,47.4599972 9.89999923,47.3399972 Z" id="Path" fill="#FFFFFF" fill-rule="evenodd"></path>
                            <path d="M9.83999923,44.5799973 C9.83999923,44.5799973 9.77999924,44.5799973 9.77999924,44.5799973 C9.35999926,44.5199973 9.05999928,44.1599974 9.11999928,43.7399974 C10.5599992,29.8799982 25.9799983,17.7599989 40.3199974,19.2599989 C40.7399974,19.3199988 41.0399974,19.6799988 40.9799974,20.0999988 C40.9199974,20.5199988 40.5599974,20.8199988 40.1399974,20.7599988 C26.5799982,19.3799988 11.9399991,30.8399982 10.6199992,43.8599974 C10.6199992,44.2799974 10.2599992,44.5799973 9.83999923,44.5799973 Z" id="Path" fill="#FFFFFF" fill-rule="nonzero"></path>
                            <path d="M72.2999955,50.399997 C72.2999955,67.139996 59.0999963,76.1999955 44.3399972,77.8799954 C44.3399972,77.8799954 66.5399959,75.3599955 72.2999955,50.399997 Z" id="Path_7506_2_" fill="#0E0731" fill-rule="nonzero"></path>
                        </g>
                    </g>
                    <path d="M23.9610846,120.759732 C20.2750494,128.722045 17.4062219,133.147853 15.3546023,134.037154 C13.3029826,134.926455 13.4717423,135.503197 15.8608813,135.76738 C18.2500204,136.031562 19.6817195,134.931335 20.1559786,132.466697 C20.6302377,130.002059 21.8986064,126.099738 23.9610846,120.759732 Z" id="Line-2" fill="#04041B" mask="url(#mask-2)" transform="translate(18.946961, 128.282738) scale(-1, 1) rotate(-40.000000) translate(-18.946961, -128.282738) "></path>
                    <path d="M62.9610846,117.759732 C59.2750494,125.722045 56.4062219,130.147853 54.3546023,131.037154 C52.3029826,131.926455 52.4717423,132.503197 54.8608813,132.76738 C57.2500204,133.031562 58.6817195,131.931335 59.1559786,129.466697 C59.6302377,127.002059 60.8986064,123.099738 62.9610846,117.759732 Z" id="Line-2" fill="#04041B" mask="url(#mask-2)" transform="translate(57.946961, 125.282738) rotate(-40.000000) translate(-57.946961, -125.282738) "></path>
                </g>
                <path d="M196.271716,137.063303 L196.271716,165.972884 C196.271716,167.115344 196.370944,168.236764 196.569294,169.337922 C196.748769,170.33429 197.120003,171.201777 197.684985,171.954408 C198.240604,172.694567 199.027469,173.308099 200.06289,173.794321 C201.088636,174.276 202.535403,174.529105 204.397811,174.529105 C207.627468,174.529105 209.754616,173.847394 210.842892,172.583097 C211.943134,171.304897 212.543234,169.217843 212.584694,166.300456 L212.586999,165.972884 L212.586999,137.063303 L224.789619,137.063303 L224.789619,165.972884 C224.789619,172.325277 222.966481,177.133789 219.284617,180.31067 C215.650121,183.446679 210.671707,185 204.397811,185 C198.038985,185 193.048585,183.457426 189.474502,180.337641 C185.934228,177.247368 184.146017,172.567972 184.071525,166.378674 L184.069096,165.972884 L184.069096,137.063303 L196.271716,137.063303 Z M439.228861,136 C441.674355,136 444.026086,136.271093 446.282231,136.813967 C448.584647,137.367974 450.640713,138.270168 452.442949,139.520827 C454.272328,140.790321 455.728068,142.415291 456.801199,144.384551 C457.834469,146.280665 458.369636,148.53376 458.418261,151.132127 L458.421907,151.52447 L458.421907,152.663073 L446.604293,152.663073 L446.536988,151.595494 C446.462724,150.417548 446.220036,149.473011 445.824159,148.756353 C445.432575,148.04747 444.925426,147.503496 444.293896,147.108083 C443.615593,146.683385 442.830876,146.379365 441.933011,146.197711 C440.981088,146.005121 439.932511,145.90797 438.787212,145.90797 C438.067987,145.90797 437.348089,145.983094 436.626299,146.133736 C435.962667,146.27224 435.36811,146.511423 434.835641,146.851982 C434.315216,147.184838 433.892521,147.595661 433.559764,148.090482 C433.273938,148.515514 433.121732,149.088895 433.121732,149.835694 C433.121732,150.514975 433.241603,151.020019 433.456099,151.365562 C433.655556,151.686878 434.148586,152.059273 434.952271,152.432213 C435.747213,152.801097 436.834328,153.179483 438.206911,153.562037 L438.860656,153.738877 L441.66943,154.466664 L445.637192,155.474305 L445.830848,155.513814 L446.247307,155.605284 L446.702765,155.713371 C446.781934,155.732771 446.862735,155.752865 446.94517,155.773651 L447.459435,155.906698 L448.01311,156.056407 L448.60636,156.222797 L449.239348,156.405887 C450.844177,156.876451 452.428796,157.622916 453.992376,158.641528 C455.597792,159.687395 456.979965,161.080267 458.136281,162.810985 C459.343062,164.617236 459.936132,166.888308 459.936132,169.600625 C459.936132,171.803208 459.502833,173.86054 458.635275,175.76172 C457.761763,177.675949 456.462634,179.328561 454.748804,180.710425 C453.050766,182.079555 450.962895,183.136722 448.492855,183.88677 C446.042449,184.630856 443.22782,185 440.049066,185 C437.470139,185 434.964531,184.685439 432.534629,184.056088 C430.063971,183.416182 427.871569,182.407081 425.965035,181.028455 C424.033291,179.6316 422.497196,177.849342 421.364459,175.69329 C420.271918,173.613746 419.726382,171.184178 419.718024,168.417261 L419.720483,168.019694 L419.737622,166.89834 L431.607507,166.89834 L431.607507,168.036943 C431.607507,169.365227 431.842481,170.458266 432.298177,171.327028 C432.763462,172.21407 433.371181,172.921312 434.127542,173.461881 C434.912311,174.022754 435.843908,174.443378 436.929633,174.721741 C438.054668,175.010183 439.219897,175.154577 440.427622,175.154577 C441.253319,175.154577 442.144627,175.085853 443.101053,174.94758 C443.998006,174.817905 444.833757,174.569347 445.612173,174.201877 C446.340179,173.858205 446.938033,173.392523 447.417358,172.798548 C447.834357,172.281805 448.048976,171.60552 448.048976,170.726475 C448.048976,169.815153 447.777575,169.131609 447.229359,168.602821 C446.56572,167.9627 445.673114,167.415346 444.543743,166.967503 C443.471272,166.542224 442.264607,166.162028 440.924211,165.827923 L440.415295,165.704797 C438.801019,165.325774 437.165949,164.904752 435.543295,164.450507 C433.816559,164.022555 432.132434,163.49814 430.491165,162.877281 C428.790918,162.234111 427.263195,161.398901 425.911517,160.371573 C424.51901,159.313214 423.392684,157.989424 422.538134,156.40958 C421.664724,154.79487 421.234576,152.870178 421.234576,150.648808 C421.234576,148.162451 421.777701,145.974367 422.872377,144.104107 C423.943145,142.274695 425.348391,140.745686 427.08075,139.52544 C428.791523,138.3204 430.72396,137.429363 432.871717,136.852708 C434.987702,136.284583 437.107564,136 439.228861,136 Z M499.495258,137.063303 L499.495258,147.596746 L475.708722,147.596291 L475.708722,154.888663 L497.539384,154.889269 L497.539384,164.797239 L475.708722,164.796785 L475.708722,173.465348 L500,173.465802 L500,183.999244 L463.506689,183.999244 L463.506689,137.063303 L499.495258,137.063303 Z M402.445814,137.063303 C404.606706,137.063303 406.571116,137.412264 408.332272,138.115171 C410.089276,138.816421 411.605432,139.784293 412.872102,141.01718 C414.140175,142.251434 415.111538,143.684418 415.780604,145.308315 C416.447811,146.9277 416.780721,148.668905 416.780721,150.523714 C416.780721,153.34207 416.175398,155.810366 414.955435,157.90973 C414.14355,159.306856 413.006258,160.480994 411.555583,161.431412 L411.261274,161.618513 L411.127515,161.697508 L411.356759,161.835767 C411.522,161.939183 411.681941,162.047689 411.836537,162.161304 L412.064415,162.335559 L412.284241,162.517491 C413.189796,163.297095 413.929851,164.220083 414.500448,165.280703 C415.058412,166.317841 415.463534,167.45385 415.716579,168.685335 C415.957586,169.858231 416.122016,171.03189 416.210905,172.223295 L416.274497,173.389437 L416.322123,174.386752 C416.327413,174.503414 416.332701,174.622025 416.337989,174.742588 C416.379035,175.678489 416.450928,176.635563 416.553716,177.613801 C416.653168,178.560285 416.811692,179.454097 417.028808,180.295483 C417.203423,180.97217 417.449158,181.543705 417.762607,182.015187 L417.883318,182.187313 L419.223655,183.999244 L406.261102,183.999244 L405.978792,183.267279 C405.429918,181.844173 405.081463,180.190476 404.927883,178.305855 L404.895898,177.866843 C404.771504,175.934848 404.585076,174.086682 404.337275,172.326085 C404.03298,170.214436 403.411185,168.727779 402.516977,167.841301 C401.70735,167.038674 400.294925,166.58716 398.238163,166.550927 L397.966232,166.548562 L389.208924,166.547956 L389.209209,183.999244 L377.00659,183.999244 L377.00659,137.063303 L402.445814,137.063303 Z M242.639187,137.063303 L259.78005,164.37702 L259.780343,137.063303 L271.352035,137.063303 L271.352035,183.999244 L259.659396,183.999244 L242.581161,156.750658 L242.581762,183.999244 L231.010069,183.999244 L231.010069,137.063303 L242.639187,137.063303 Z M372.111086,137.063303 L372.111086,147.596746 L348.325001,147.596291 L348.325001,154.888663 L370.155212,154.889269 L370.155212,164.797239 L348.325001,164.796785 L348.325001,173.465348 L372.615828,173.465802 L372.615828,183.999244 L336.122517,183.999244 L336.122517,137.063303 L372.111086,137.063303 Z M161.823099,137.063303 L161.823099,147.596746 L138.036389,147.596291 L138.036389,154.888663 L159.867225,154.889269 L159.867225,164.797239 L138.036389,164.796785 L138.036389,173.465348 L162.32784,173.465802 L162.32784,183.999244 L125.834529,183.999244 L125.834529,137.063303 L161.823099,137.063303 Z M76.2062974,137.063303 L76.2062974,147.596746 L62.7041535,147.596291 L62.7044584,183.999244 L50.501839,183.999244 L50.5013804,147.596291 L37,147.596746 L37,137.063303 L76.2062974,137.063303 Z M91.285454,137.063303 L91.2849976,154.200947 L107.222032,154.200947 L107.222181,137.063303 L119.424801,137.063303 L119.424801,183.999244 L107.222181,183.999244 L107.222032,164.734541 L91.2849976,164.734541 L91.285454,183.999244 L79.0828345,183.999244 L79.0828345,137.063303 L91.285454,137.063303 Z M289.964383,137.063303 L289.964383,183.999244 L277.761764,183.999244 L277.761764,137.063303 L289.964383,137.063303 Z M303.726512,137.063303 L312.986193,166.04773 L322.363574,137.063303 L335.013781,137.063303 L319.298339,183.999244 L306.466452,183.999244 L291.148869,137.063303 L303.726512,137.063303 Z M389.208924,146.970818 L389.208924,157.265307 L398.912622,157.266064 C400.925849,157.266064 402.361511,156.84436 403.260088,156.052531 C404.118109,155.296439 404.578102,153.979059 404.578102,152.024848 C404.578102,150.158955 404.123429,148.898545 403.269092,148.161384 C402.412599,147.422363 401.065776,147.011536 399.196877,146.974085 L398.912622,146.971273 L389.208924,146.970818 Z M496.371659,44 C501.144105,44 505.7248,44.5298974 510.113745,45.5896921 C514.50269,46.6494868 518.401608,48.3663543 521.810497,50.7402945 C525.219387,53.1142347 527.925193,56.1452477 529.927916,59.8333333 C531.85361,63.3795696 532.85349,67.6508872 532.927556,72.6472864 L532.931999,73.2503347 L513.501329,73.2503347 C513.330885,70.5372602 512.755635,68.2904953 511.775579,66.5100402 C510.795523,64.729585 509.495884,63.330656 507.876661,62.313253 C506.257439,61.2958501 504.403855,60.5751896 502.31591,60.1512718 C500.227965,59.7273539 497.948271,59.5153949 495.476826,59.5153949 C493.857603,59.5153949 492.238381,59.6849621 490.619158,60.0240964 C488.999936,60.3632307 487.529852,60.9567158 486.208907,61.8045515 C484.887963,62.6523873 483.801379,63.7121821 482.949157,64.9839357 C482.096934,66.2556894 481.670823,67.8665774 481.670823,69.8165997 C481.670823,71.5970549 482.011712,73.0383757 482.69349,74.1405622 C483.375268,75.2427488 484.717518,76.2601517 486.720241,77.1927711 C488.722963,78.1253905 491.492686,79.0580098 495.029409,79.9906292 C498.566132,80.9232485 503.189438,82.1102187 508.899328,83.5515395 C510.603773,83.8906738 512.96869,84.5053548 515.99408,85.3955823 C519.019469,86.2858099 522.023553,87.7059349 525.006331,89.6559572 C527.98911,91.6059795 530.567082,94.2130745 532.740249,97.4772423 C534.913416,100.74141 536,104.917001 536,110.004016 C536,114.158411 535.190389,118.016064 533.571166,121.576975 C531.951944,125.137885 529.544415,128.21129 526.348582,130.797189 C523.152748,133.383088 519.189913,135.396698 514.460079,136.838019 C512.357833,137.478635 510.108276,137.976886 507.711408,138.332771 L507.710522,128.564594 L467.560073,128.564976 C465.448476,126.477791 463.675169,124.063674 462.240153,121.322624 C460.185688,117.398355 459.161391,112.764565 459.167261,107.421253 L459.172152,106.824632 L478.602822,106.824632 C478.602822,109.876841 479.156767,112.46274 480.264656,114.582329 C481.372545,116.701919 482.842629,118.418786 484.674907,119.732932 C486.507185,121.047077 488.659047,122.022088 491.130492,122.657965 C493.601936,123.293842 496.158604,123.61178 498.800493,123.61178 C500.59016,123.61178 502.50766,123.463409 504.552994,123.166667 C506.598328,122.869924 508.515828,122.297635 510.305495,121.449799 C512.095162,120.601963 513.586551,119.436189 514.779663,117.952477 C515.972774,116.468764 516.56933,114.582329 516.56933,112.293173 C516.56933,109.834449 515.781024,107.842035 514.204413,106.31593 C512.627801,104.789826 510.561162,103.518072 508.004495,102.500669 C505.447828,101.483266 502.550271,100.593039 499.311826,99.8299866 C496.073381,99.0669344 492.792325,98.2190986 489.468658,97.2864793 C486.059768,96.4386435 482.736101,95.4000446 479.497656,94.1706827 C476.259211,92.9413208 473.361655,91.3516287 470.804988,89.4016064 C468.248321,87.4515841 466.181681,85.0140562 464.60507,82.0890228 C463.028458,79.1639893 462.240153,75.6242749 462.240153,71.4698795 C462.240153,66.8067827 463.241514,62.7583668 465.244237,59.3246319 C467.246959,55.8908969 469.867543,53.0294511 473.105988,50.7402945 C476.344433,48.4511379 480.008989,46.7554663 484.099657,45.6532798 C488.190324,44.5510933 492.280992,44 496.371659,44 Z M54.7848851,45.8269231 L85.835,128.564 L65.381,128.564 L61.1404403,116.121243 L27.2017759,116.121243 L20.0835542,136.259615 L0,136.259615 L34.3199977,45.8269231 L54.7848851,45.8269231 Z M414.05084,44 C418.823285,44 423.403981,44.5298974 427.792926,45.5896921 C432.181871,46.6494868 436.080789,48.3663543 439.489678,50.7402945 C442.898568,53.1142347 445.604374,56.1452477 447.607096,59.8333333 C449.532791,63.3795696 450.532671,67.6508872 450.606736,72.6472864 L450.61118,73.2503347 L431.18051,73.2503347 C431.010065,70.5372602 430.434815,68.2904953 429.45476,66.5100402 C428.474704,64.729585 427.175065,63.330656 425.555842,62.313253 C423.93662,61.2958501 422.083036,60.5751896 419.995091,60.1512718 C417.907146,59.7273539 415.627451,59.5153949 413.156007,59.5153949 C411.536784,59.5153949 409.917562,59.6849621 408.298339,60.0240964 C406.679116,60.3632307 405.209033,60.9567158 403.888088,61.8045515 C402.567143,62.6523873 401.48056,63.7121821 400.628338,64.9839357 C399.776115,66.2556894 399.350004,67.8665774 399.350004,69.8165997 C399.350004,71.5970549 399.690893,73.0383757 400.372671,74.1405622 C401.054449,75.2427488 402.396699,76.2601517 404.399422,77.1927711 C406.402144,78.1253905 409.171867,79.0580098 412.70859,79.9906292 C416.245313,80.9232485 420.868619,82.1102187 426.578509,83.5515395 C428.282954,83.8906738 430.647871,84.5053548 433.67326,85.3955823 C436.69865,86.2858099 439.702734,87.7059349 442.685512,89.6559572 C445.66829,91.6059795 448.246263,94.2130745 450.41943,97.4772423 C452.592597,100.74141 453.679181,104.917001 453.679181,110.004016 C453.679181,114.158411 452.86957,118.016064 451.250347,121.576975 C450.120609,124.061436 448.607131,126.308585 446.709912,128.31842 C444.101734,127.767212 441.416739,127.494611 438.664677,127.494611 C435.759939,127.494611 432.867629,127.885478 430.008917,128.658131 C426.874941,129.505182 423.994611,130.842134 421.422892,132.665675 C420.556877,133.279744 419.739825,133.945188 418.974027,134.660101 L418.520716,135.094971 L418.148279,134.736961 C416.111758,132.825374 413.730116,131.328632 411.066997,130.258657 C408.397903,129.186282 405.526922,128.635687 402.502396,128.571052 L401.895458,128.564594 L385.239254,128.564976 C383.127657,126.477791 381.35435,124.063674 379.919334,121.322624 C377.864869,117.398355 376.840572,112.764565 376.846441,107.421253 L376.851333,106.824632 L396.282003,106.824632 C396.282003,109.876841 396.835948,112.46274 397.943837,114.582329 C399.051726,116.701919 400.52181,118.418786 402.354088,119.732932 C404.186366,121.047077 406.338228,122.022088 408.809672,122.657965 C411.281117,123.293842 413.837784,123.61178 416.479674,123.61178 C418.269341,123.61178 420.186841,123.463409 422.232175,123.166667 C424.277509,122.869924 426.195009,122.297635 427.984676,121.449799 C429.774343,120.601963 431.265732,119.436189 432.458844,117.952477 C433.651955,116.468764 434.248511,114.582329 434.248511,112.293173 C434.248511,109.834449 433.460205,107.842035 431.883593,106.31593 C430.306982,104.789826 428.240343,103.518072 425.683676,102.500669 C423.127008,101.483266 420.229452,100.593039 416.991007,99.8299866 C413.752562,99.0669344 410.471506,98.2190986 407.147839,97.2864793 C403.738949,96.4386435 400.415282,95.4000446 397.176837,94.1706827 C393.938392,92.9413208 391.040836,91.3516287 388.484169,89.4016064 C385.927501,87.4515841 383.860862,85.0140562 382.284251,82.0890228 C380.707639,79.1639893 379.919334,75.6242749 379.919334,71.4698795 C379.919334,66.8067827 380.920695,62.7583668 382.923418,59.3246319 C384.92614,55.8908969 387.546724,53.0294511 390.785169,50.7402945 C394.023614,48.4511379 397.68817,46.7554663 401.778838,45.6532798 C405.869505,44.5510933 409.960173,44 414.05084,44 Z M241.325675,45.8269231 C245.418663,45.8269231 249.106616,46.4813146 252.389534,47.7900978 C255.672451,49.0988809 258.48638,50.8931803 260.831322,53.1729961 C263.176263,55.4528119 264.966945,58.0914876 266.203369,61.0890231 C267.439792,64.0865587 268.058004,67.3162977 268.058004,70.7782401 C268.058004,76.0978103 266.928169,80.6996606 264.668498,84.5837912 C262.48172,88.3426272 258.957321,91.2316064 254.0953,93.2507287 L253.604639,93.4497414 L253.604639,93.7030543 C256.077486,94.3785553 258.123981,95.4129161 259.744122,96.8061369 C261.364263,98.1993576 262.685957,99.8458912 263.709204,101.745738 C264.732451,103.645584 265.478569,105.735415 265.947557,108.015231 C266.416545,110.295047 266.73631,112.574863 266.906851,114.854678 C266.992121,116.290118 267.077392,117.97887 267.162663,119.920936 C267.247933,121.863001 267.397157,123.847285 267.610333,125.873788 C267.706998,126.792702 267.829962,127.689914 267.979225,128.565424 L250.481517,128.564594 L250.481224,134.085759 L249.545421,132.586342 C249.080409,130.590972 248.770705,128.395673 248.61631,126.000444 C248.360498,122.031876 247.976781,118.232183 247.465157,114.601366 C246.782992,109.872859 245.333393,106.410916 243.116357,104.215538 C240.968604,102.088766 237.500448,100.992148 232.711888,100.925687 L232.244358,100.922471 L212.163134,100.922471 L212.163,128.564 L192.081,128.564 L192.081911,45.8269231 L241.325675,45.8269231 Z M137.281141,44 C142.312546,44 147.066797,44.7206604 151.543894,46.1619813 C156.020991,47.6033021 160.029059,49.7016957 163.568098,52.457162 C167.107136,55.2126283 170.027909,58.6251673 172.330416,62.6947791 C174.532815,66.5874513 175.954975,71.0231229 176.596898,76.0017942 L176.679597,76.6840696 L157.236203,76.6840696 C156.895091,74.394913 156.127589,72.2965194 154.933696,70.3888889 C153.739803,68.4812584 152.247438,66.8067827 150.456599,65.3654618 C148.66576,63.924141 146.640406,62.8007586 144.380538,61.9953146 C142.12067,61.1898706 139.754205,60.7871486 137.281141,60.7871486 C132.761405,60.7871486 128.923893,61.6561803 125.768606,63.3942436 C122.613318,65.132307 120.054977,67.4638554 118.093582,70.3888889 C116.132187,73.3139224 114.70378,76.6416778 113.80836,80.3721553 C112.912941,84.1026328 112.465231,87.9602856 112.465231,91.9451138 C112.465231,95.7603748 112.912941,99.4696564 113.80836,103.072959 C114.70378,106.676261 116.132187,109.919232 118.093582,112.801874 C120.054977,115.684516 122.613318,117.994868 125.768606,119.732932 C128.923893,121.470995 132.761405,122.340027 137.281141,122.340027 C143.42116,122.340027 148.21805,120.474788 151.671811,116.744311 C155.017642,113.130411 157.102977,108.402567 157.927817,102.56078 L158.003706,101.991968 L177.447099,101.991968 C176.935431,107.672468 175.613621,112.801874 173.48167,117.380187 C171.462081,121.717206 168.830284,125.445567 165.586279,128.56527 L107.507827,128.565403 C106.370218,127.571472 105.293789,126.51375 104.278539,125.392236 C100.441027,121.153057 97.4989351,116.172021 95.4522621,110.44913 C93.4055891,104.726238 92.3822526,98.5582329 92.3822526,91.9451138 C92.3822526,85.1624275 93.4055891,78.8672468 95.4522621,73.0595716 C97.4989351,67.2518965 100.441027,62.1860776 104.278539,57.8621151 C108.116051,53.5381526 112.827663,50.1468095 118.413375,47.6880857 C123.999086,45.2293619 130.288342,44 137.281141,44 Z M45.1404852,69.5769231 L44.8833871,69.5769231 L32.9283276,103.375 L56.7098976,103.375 L45.1404852,69.5769231 Z M233.20312,61.3557692 L211.290102,61.3557692 L211.290102,86.9326923 L233.20312,86.9326923 C237.789566,86.9326923 241.2294,85.9147053 243.522623,83.8787313 C245.815846,81.8427574 246.962457,78.5342997 246.962457,73.9533582 C246.962457,69.5420813 245.815846,66.3396639 243.522623,64.346106 C241.2294,62.3525482 237.789566,61.3557692 233.20312,61.3557692 Z" id="Across-the-universe" fill="#FFFFFF" fill-rule="nonzero"></path>
            </g>
        </g>
    </g>
</svg>